<svg width="12" height="14" viewBox="0 0 12 14" fill="none" xmlns="http://www.w3.org/2000/svg">
<path d="M5.57143 0H8.89554C9.23571 0 9.5625 0.139453 9.80357 0.385547L11.6223 2.24219C11.8634 2.48828 12 2.82188 12 3.16914V9.1875C12 9.91211 11.4241 10.5 10.7143 10.5H5.57143C4.86161 10.5 4.28571 9.91211 4.28571 9.1875V1.3125C4.28571 0.587891 4.86161 0 5.57143 0ZM1.28571 3.5H3.42857V5.25H1.71429V12.25H6.85714V11.375H8.57143V12.6875C8.57143 13.4121 7.99554 14 7.28571 14H1.28571C0.575893 14 0 13.4121 0 12.6875V4.8125C0 4.08789 0.575893 3.5 1.28571 3.5Z" fill="#8C8F96"/>
</svg>
