<svg width="12" height="13" viewBox="0 0 12 13" fill="none" xmlns="http://www.w3.org/2000/svg">
<path d="M4.07143 0.609375C4.07143 0.27168 3.78482 0 3.42857 0C3.07232 0 2.78571 0.27168 2.78571 0.609375V1.625H1.71429C0.76875 1.625 0 2.35371 0 3.25V3.65625V4.875V11.375C0 12.2713 0.76875 13 1.71429 13H10.2857C11.2312 13 12 12.2713 12 11.375V4.875V3.65625V3.25C12 2.35371 11.2312 1.625 10.2857 1.625H9.21429V0.609375C9.21429 0.27168 8.92768 0 8.57143 0C8.21518 0 7.92857 0.27168 7.92857 0.609375V1.625H4.07143V0.609375ZM1.28571 4.875H10.7143V11.375C10.7143 11.5984 10.5214 11.7812 10.2857 11.7812H1.71429C1.47857 11.7812 1.28571 11.5984 1.28571 11.375V4.875Z" fill="#8C8F96"/>
</svg>
