<svg width="8" height="12" viewBox="0 0 8 12" fill="none" xmlns="http://www.w3.org/2000/svg">
<g clip-path="url(#clip0_287_2828)">
<path d="M4.26516 0.539351L7.30177 3.57598C7.44822 3.72243 7.44822 3.95987 7.30177 4.1063L6.94759 4.46048C6.80139 4.60668 6.56444 4.60696 6.41789 4.4611L3.99998 2.05452L1.58209 4.4611C1.43555 4.60696 1.19859 4.60668 1.05239 4.46048L0.698219 4.1063C0.551766 3.95985 0.551766 3.72241 0.698219 3.57598L3.73483 0.539367C3.88127 0.392914 4.1187 0.392913 4.26516 0.539351Z" fill="#DFE8F2"/>
</g>
<g clip-path="url(#clip1_287_2828)">
<path d="M3.73484 11.4606L0.698235 8.42402C0.551782 8.27757 0.551782 8.04013 0.698235 7.8937L1.05241 7.53952C1.19861 7.39332 1.43556 7.39304 1.58211 7.5389L4.00002 9.94548L6.41791 7.5389C6.56445 7.39304 6.80141 7.39332 6.94761 7.53952L7.30178 7.8937C7.44823 8.04015 7.44823 8.27759 7.30178 8.42402L4.26517 11.4606C4.11873 11.6071 3.8813 11.6071 3.73484 11.4606Z" fill="#DFE8F2"/>
</g>
<defs>
<clipPath id="clip0_287_2828">
<rect width="5" height="8" fill="white" transform="matrix(0 -1 1 0 0 5)"/>
</clipPath>
<clipPath id="clip1_287_2828">
<rect width="5" height="8" fill="white" transform="matrix(0 1 -1 0 8 7)"/>
</clipPath>
</defs>
</svg>
