<svg width="12" height="15" viewBox="0 0 12 15" fill="none" xmlns="http://www.w3.org/2000/svg">
<path d="M4.71418 0.5C4.24007 0.5 3.85704 0.891016 3.85704 1.375C3.85704 1.85898 4.24007 2.25 4.71418 2.25H5.14275V3.19062C2.47222 3.61172 0.428467 5.96875 0.428467 8.8125C0.428467 11.9543 2.92222 14.5 5.9999 14.5C9.07757 14.5 11.5713 11.9543 11.5713 8.8125C11.5713 7.66953 11.2419 6.60586 10.674 5.71719L11.3195 5.0582C11.6544 4.71641 11.6544 4.16133 11.3195 3.81953C10.9847 3.47773 10.441 3.47773 10.1061 3.81953L9.52757 4.41016C8.7749 3.78125 7.8615 3.34922 6.85704 3.19062V2.25H7.28561C7.75972 2.25 8.14275 1.85898 8.14275 1.375C8.14275 0.891016 7.75972 0.5 7.28561 0.5H5.9999H4.71418ZM6.64275 5.75V9.25C6.64275 9.61367 6.35615 9.90625 5.9999 9.90625C5.64365 9.90625 5.35704 9.61367 5.35704 9.25V5.75C5.35704 5.38633 5.64365 5.09375 5.9999 5.09375C6.35615 5.09375 6.64275 5.38633 6.64275 5.75Z" fill="#8C8F96"/>
</svg>
