<svg width="16" height="12" viewBox="0 0 16 12" fill="none" xmlns="http://www.w3.org/2000/svg">
<path d="M15.5586 2.78758L8.58512 0.109453C8.20512 -0.0364844 7.79512 -0.0364844 7.41537 0.109453L0.441619 2.78758C-0.146881 3.01352 -0.146881 3.98633 0.441619 4.21227L1.65737 4.67914C1.39062 5.09133 1.22662 5.59414 1.21037 6.14477C0.969619 6.31727 0.800119 6.62852 0.800119 7.00008C0.800119 7.33695 0.942119 7.62039 1.14662 7.80164L0.508369 11.3916C0.452869 11.7038 0.642869 12.0001 0.898619 12.0001H2.30137C2.55737 12.0001 2.74737 11.7038 2.69187 11.3916L2.05362 7.80164C2.25812 7.62039 2.40012 7.33695 2.40012 7.00008C2.40012 6.63852 2.23837 6.33602 2.00862 6.16039C2.02762 5.69102 2.21962 5.27602 2.52587 5.01289L7.41512 6.8907C7.64162 6.97758 8.07612 7.08602 8.58487 6.8907L15.5586 4.21258C16.1474 3.98633 16.1474 3.01383 15.5586 2.78758ZM8.81987 7.84664C8.10662 8.12039 7.49887 7.96914 7.18012 7.84664L3.55462 6.45445L3.20012 10.0001C3.20012 11.1048 5.34912 12.0001 8.00012 12.0001C10.6511 12.0001 12.8001 11.1048 12.8001 10.0001L12.4456 6.45414L8.81987 7.84664Z" fill="#6BB390"/>
</svg>
