<svg width="16" height="16" viewBox="0 0 16 16" fill="none" xmlns="http://www.w3.org/2000/svg">
<path d="M9.95469 0.292969C9.56406 -0.0976562 8.92969 -0.0976562 8.53906 0.292969L4.78906 4.04297C4.39844 4.43359 4.39844 5.06797 4.78906 5.45859L5.28906 5.95859C5.67969 6.34922 6.31406 6.34922 6.70469 5.95859L6.82969 5.83359L10.1672 9.16797L10.0422 9.29297C9.65156 9.68359 9.65156 10.318 10.0422 10.7086L10.5422 11.2086C10.9328 11.5992 11.5672 11.5992 11.9578 11.2086L15.7078 7.45859C16.0984 7.06797 16.0984 6.43359 15.7078 6.04297L15.2078 5.54297C14.8172 5.15234 14.1828 5.15234 13.7922 5.54297L13.6672 5.66797L10.3297 2.33047L10.4547 2.20547C10.8453 1.81484 10.8453 1.18047 10.4547 0.789844L9.95469 0.289844V0.292969ZM5.20469 9.29297C4.81406 8.90234 4.17969 8.90234 3.78906 9.29297L0.289062 12.793C-0.101562 13.1836 -0.101562 13.818 0.289062 14.2086L1.78906 15.7086C2.17969 16.0992 2.81406 16.0992 3.20469 15.7086L6.70469 12.2086C7.09531 11.818 7.09531 11.1836 6.70469 10.793L6.66094 10.7492L8.49844 8.91484L7.08281 7.49922L5.24844 9.33359L5.20469 9.28984V9.29297Z" fill="#B36B6B"/>
</svg>
