<svg width="17" height="12" viewBox="0 0 17 12" fill="none" xmlns="http://www.w3.org/2000/svg">
<path d="M0 2.5C0 1.53477 0.762344 0.75 1.7 0.75H6.8H8.075H8.5H15.3C16.2377 0.75 17 1.53477 17 2.5V9.5C17 10.4652 16.2377 11.25 15.3 11.25H8.5H8.075H6.8H1.7C0.762344 11.25 0 10.4652 0 9.5V2.5ZM8.5 2.5V9.5H15.3V2.5H8.5ZM4.73609 3.80977C4.65109 3.61289 4.45984 3.48438 4.25 3.48438C4.04016 3.48438 3.84891 3.61289 3.76391 3.80977L2.06391 7.74727C1.94437 8.02344 2.06656 8.34609 2.33484 8.46914C2.60313 8.59219 2.91656 8.46641 3.03609 8.19023L3.2725 7.64062H5.2275L5.46391 8.19023C5.58344 8.46641 5.89688 8.58945 6.16516 8.46914C6.43344 8.34883 6.55297 8.02344 6.43609 7.74727L4.73609 3.80977ZM4.25 5.37656L4.75469 6.54688H3.74531L4.25 5.37656ZM11.9 3.48438C12.1922 3.48438 12.4313 3.73047 12.4313 4.03125V4.14062H13.6H14.025C14.3172 4.14062 14.5563 4.38672 14.5563 4.6875C14.5563 4.98828 14.3172 5.23438 14.025 5.23438H13.9719L13.9294 5.35742C13.693 6.02461 13.3344 6.63164 12.8775 7.1457C12.9014 7.16211 12.9253 7.17578 12.9492 7.18945L13.4513 7.49844C13.7036 7.6543 13.7833 7.99063 13.6345 8.24766C13.4858 8.50469 13.1564 8.58945 12.9067 8.43633L12.4047 8.12734C12.2852 8.05352 12.1709 7.97695 12.0567 7.89492C11.7752 8.1 11.475 8.27773 11.1536 8.42539L11.058 8.46914C10.7897 8.59219 10.4762 8.46641 10.3567 8.19023C10.2372 7.91406 10.3594 7.59141 10.6277 7.46836L10.7233 7.42461C10.8933 7.34531 11.058 7.25781 11.2147 7.15664L10.8906 6.82305C10.6834 6.60977 10.6834 6.2625 10.8906 6.04922C11.0978 5.83594 11.4352 5.83594 11.6423 6.04922L12.0302 6.44844L12.0434 6.46211C12.3728 6.10391 12.6411 5.68828 12.835 5.23164H11.9H9.9875C9.69531 5.23164 9.45625 4.98555 9.45625 4.68477C9.45625 4.38398 9.69531 4.13789 9.9875 4.13789H11.3688V4.02852C11.3688 3.72773 11.6078 3.48164 11.9 3.48164V3.48438Z" fill="#DFE8F2"/>
</svg>
