<svg width="14" height="14" viewBox="0 0 14 14" fill="none" xmlns="http://www.w3.org/2000/svg">
<path d="M7 1.75C4.10156 1.75 1.75 4.10156 1.75 7C1.75 9.89844 4.10156 12.25 7 12.25C7.48398 12.25 7.875 12.641 7.875 13.125C7.875 13.609 7.48398 14 7 14C3.13359 14 0 10.8664 0 7C0 3.13359 3.13359 0 7 0C10.8664 0 14 3.13359 14 7V7.875C14 9.32422 12.8242 10.5 11.375 10.5C10.5738 10.5 9.85469 10.1391 9.37344 9.57305C8.75 10.1473 7.91602 10.5 7 10.5C5.0668 10.5 3.5 8.9332 3.5 7C3.5 5.0668 5.0668 3.5 7 3.5C7.76289 3.5 8.46836 3.74336 9.04258 4.15898C9.19844 4.02227 9.40078 3.9375 9.625 3.9375C10.109 3.9375 10.5 4.32852 10.5 4.8125V7V7.875C10.5 8.35898 10.891 8.75 11.375 8.75C11.859 8.75 12.25 8.35898 12.25 7.875V7C12.25 4.10156 9.89844 1.75 7 1.75ZM8.75 7C8.75 6.53587 8.56563 6.09075 8.23744 5.76256C7.90925 5.43437 7.46413 5.25 7 5.25C6.53587 5.25 6.09075 5.43437 5.76256 5.76256C5.43437 6.09075 5.25 6.53587 5.25 7C5.25 7.46413 5.43437 7.90925 5.76256 8.23744C6.09075 8.56563 6.53587 8.75 7 8.75C7.46413 8.75 7.90925 8.56563 8.23744 8.23744C8.56563 7.90925 8.75 7.46413 8.75 7Z" fill="#DFE8F2"/>
</svg>
