<svg width="12" height="12" viewBox="0 0 12 12" fill="none" xmlns="http://www.w3.org/2000/svg">
<path d="M8.50086 0.452148L7.36649 1.58652L10.4134 4.6334L11.5477 3.49902C12.1337 2.91309 12.1337 1.96387 11.5477 1.37793L10.6243 0.452148C10.0384 -0.133789 9.08914 -0.133789 8.50321 0.452148H8.50086ZM6.8368 2.11621L1.37352 7.58184C1.12977 7.82559 0.951644 8.12793 0.853207 8.4584L0.0235192 11.2779C-0.0350745 11.4771 0.0188317 11.6904 0.164144 11.8357C0.309457 11.9811 0.522738 12.035 0.719613 11.9787L3.53914 11.149C3.86961 11.0506 4.17196 10.8725 4.41571 10.6287L9.88368 5.16309L6.8368 2.11621Z" fill="#8C8F96"/>
</svg>
