<svg width="14" height="14" viewBox="0 0 14 14" fill="none" xmlns="http://www.w3.org/2000/svg">
<path d="M10.5628 4.3752H9.18745C8.70347 4.3752 8.31245 4.76621 8.31245 5.2502C8.31245 5.73418 8.70347 6.1252 9.18745 6.1252H12.6875C13.1714 6.1252 13.5625 5.73418 13.5625 5.2502V1.7502C13.5625 1.26621 13.1714 0.875195 12.6875 0.875195C12.2035 0.875195 11.8125 1.26621 11.8125 1.7502V3.1502L11.3312 2.66895C8.93862 0.276367 5.06128 0.276367 2.6687 2.66895C0.276123 5.06152 0.276123 8.93887 2.6687 11.3314C5.06128 13.724 8.93862 13.724 11.3312 11.3314C11.673 10.9896 11.673 10.4346 11.3312 10.0928C10.9894 9.75098 10.4343 9.75098 10.0925 10.0928C8.38354 11.8018 5.61362 11.8018 3.90464 10.0928C2.19565 8.38379 2.19565 5.61387 3.90464 3.90488C5.61362 2.1959 8.38354 2.1959 10.0925 3.90488L10.5628 4.3752Z" fill="#DFE8F2"/>
</svg>
