<svg width="14" height="15" viewBox="0 0 14 15" fill="none" xmlns="http://www.w3.org/2000/svg">
<path d="M7 14.5C8.85652 14.5 10.637 13.7625 11.9497 12.4497C13.2625 11.137 14 9.35652 14 7.5C14 5.64348 13.2625 3.86301 11.9497 2.55025C10.637 1.2375 8.85652 0.5 7 0.5C5.14348 0.5 3.36301 1.2375 2.05025 2.55025C0.737498 3.86301 0 5.64348 0 7.5C0 9.35652 0.737498 11.137 2.05025 12.4497C3.36301 13.7625 5.14348 14.5 7 14.5ZM5.90625 9.6875H6.5625V7.9375H5.90625C5.54258 7.9375 5.25 7.64492 5.25 7.28125C5.25 6.91758 5.54258 6.625 5.90625 6.625H7.21875C7.58242 6.625 7.875 6.91758 7.875 7.28125V9.6875H8.09375C8.45742 9.6875 8.75 9.98008 8.75 10.3438C8.75 10.7074 8.45742 11 8.09375 11H5.90625C5.54258 11 5.25 10.7074 5.25 10.3438C5.25 9.98008 5.54258 9.6875 5.90625 9.6875ZM7 4C7.23206 4 7.45462 4.09219 7.61872 4.25628C7.78281 4.42038 7.875 4.64294 7.875 4.875C7.875 5.10706 7.78281 5.32962 7.61872 5.49372C7.45462 5.65781 7.23206 5.75 7 5.75C6.76794 5.75 6.54538 5.65781 6.38128 5.49372C6.21719 5.32962 6.125 5.10706 6.125 4.875C6.125 4.64294 6.21719 4.42038 6.38128 4.25628C6.54538 4.09219 6.76794 4 7 4Z" fill="#8C8F96"/>
</svg>
