<svg width="17" height="14" viewBox="0 0 17 14" fill="none" xmlns="http://www.w3.org/2000/svg">
<path d="M6.8 0H15.3C16.2377 0 17 0.784766 17 1.75V7.875C17 8.84023 16.2377 9.625 15.3 9.625H6.8C5.86234 9.625 5.1 8.84023 5.1 7.875V1.75C5.1 0.784766 5.86234 0 6.8 0ZM12.6438 2.91758C12.5242 2.73438 12.325 2.625 12.1125 2.625C11.9 2.625 11.7008 2.73438 11.5813 2.91758L10.0938 5.21445L9.63422 4.62109C9.51203 4.46523 9.32875 4.375 9.1375 4.375C8.94625 4.375 8.76031 4.46523 8.64078 4.62109L6.94078 6.80859C6.78672 7.00547 6.7575 7.27617 6.86375 7.50312C6.97 7.73008 7.19313 7.875 7.4375 7.875H9.5625H10.8375H14.6625C14.8989 7.875 15.1141 7.74102 15.2256 7.52773C15.3372 7.31445 15.3239 7.05469 15.1938 6.85508L12.6438 2.91758ZM8.925 2.625C8.925 2.39294 8.83545 2.17038 8.67604 2.00628C8.51663 1.84219 8.30043 1.75 8.075 1.75C7.84957 1.75 7.63337 1.84219 7.47396 2.00628C7.31455 2.17038 7.225 2.39294 7.225 2.625C7.225 2.85706 7.31455 3.07962 7.47396 3.24372C7.63337 3.40781 7.84957 3.5 8.075 3.5C8.30043 3.5 8.51663 3.40781 8.67604 3.24372C8.83545 3.07962 8.925 2.85706 8.925 2.625ZM1.7 3.5H4.25V10.5V11.375C4.25 11.859 4.62984 12.25 5.1 12.25H8.5C8.97016 12.25 9.35 11.859 9.35 11.375V10.5H13.6V12.25C13.6 13.2152 12.8377 14 11.9 14H1.7C0.762344 14 0 13.2152 0 12.25V5.25C0 4.28477 0.762344 3.5 1.7 3.5ZM1.9125 5.25C1.67875 5.25 1.4875 5.44688 1.4875 5.6875V6.125C1.4875 6.36562 1.67875 6.5625 1.9125 6.5625H2.3375C2.57125 6.5625 2.7625 6.36562 2.7625 6.125V5.6875C2.7625 5.44688 2.57125 5.25 2.3375 5.25H1.9125ZM1.9125 8.09375C1.67875 8.09375 1.4875 8.29062 1.4875 8.53125V8.96875C1.4875 9.20938 1.67875 9.40625 1.9125 9.40625H2.3375C2.57125 9.40625 2.7625 9.20938 2.7625 8.96875V8.53125C2.7625 8.29062 2.57125 8.09375 2.3375 8.09375H1.9125ZM1.9125 10.9375C1.67875 10.9375 1.4875 11.1344 1.4875 11.375V11.8125C1.4875 12.0531 1.67875 12.25 1.9125 12.25H2.3375C2.57125 12.25 2.7625 12.0531 2.7625 11.8125V11.375C2.7625 11.1344 2.57125 10.9375 2.3375 10.9375H1.9125ZM10.8375 11.375V11.8125C10.8375 12.0531 11.0288 12.25 11.2625 12.25H11.6875C11.9213 12.25 12.1125 12.0531 12.1125 11.8125V11.375C12.1125 11.1344 11.9213 10.9375 11.6875 10.9375H11.2625C11.0288 10.9375 10.8375 11.1344 10.8375 11.375Z" fill="#858DE4"/>
</svg>
