<svg width="14" height="13" viewBox="0 0 14 13" fill="none" xmlns="http://www.w3.org/2000/svg">
<path d="M0.875 0.375H13.125C13.609 0.375 14 0.766016 14 1.25V2.125C14 2.60898 13.609 3 13.125 3H0.875C0.391016 3 0 2.60898 0 2.125V1.25C0 0.766016 0.391016 0.375 0.875 0.375ZM0.875 3.875H13.125V10.875C13.125 11.8402 12.3402 12.625 11.375 12.625H2.625C1.65977 12.625 0.875 11.8402 0.875 10.875V3.875ZM4.375 6.0625C4.375 6.30312 4.57188 6.5 4.8125 6.5H9.1875C9.42813 6.5 9.625 6.30312 9.625 6.0625C9.625 5.82188 9.42813 5.625 9.1875 5.625H4.8125C4.57188 5.625 4.375 5.82188 4.375 6.0625Z" fill="#DFE1E8"/>
</svg>
