<svg width="14" height="15" viewBox="0 0 14 15" fill="none" xmlns="http://www.w3.org/2000/svg">
<path d="M7 0.71875C3.25484 0.71875 0.21875 3.75481 0.21875 7.5C0.21875 11.2452 3.25484 14.2812 7 14.2812C10.7452 14.2812 13.7812 11.2452 13.7812 7.5C13.7812 3.75484 10.7452 0.71875 7 0.71875ZM10.5576 3.94236C12.3472 5.73195 12.4717 8.46723 11.123 10.3856L4.11441 3.377C6.03405 2.02742 8.76903 2.15378 10.5576 3.94236ZM3.44236 11.0576C1.65277 9.26805 1.5283 6.53277 2.87697 4.61444L9.88559 11.623C7.96597 12.9726 5.23097 12.8463 3.44236 11.0576Z" fill="#8C8F96"/>
</svg>
