<svg width="14" height="15" viewBox="0 0 14 15" fill="none" xmlns="http://www.w3.org/2000/svg">
<path d="M13.7812 7.5C13.7812 11.2452 10.7452 14.2812 7 14.2812C3.25481 14.2812 0.21875 11.2452 0.21875 7.5C0.21875 3.75481 3.25481 0.71875 7 0.71875C10.7452 0.71875 13.7812 3.75481 13.7812 7.5ZM6.21562 11.0906L11.2469 6.05937C11.4177 5.88852 11.4177 5.6115 11.2469 5.44066L10.6282 4.82195C10.4573 4.65108 10.1803 4.65108 10.0094 4.82195L5.90625 8.9251L3.99057 7.00943C3.81973 6.83858 3.54271 6.83858 3.37184 7.00943L2.75313 7.62813C2.58229 7.79898 2.58229 8.076 2.75313 8.24684L5.59688 11.0906C5.76775 11.2615 6.04475 11.2615 6.21562 11.0906Z" fill="#8C8F96"/>
</svg>
