<svg width="11" height="11" viewBox="0 0 11 11" fill="none" xmlns="http://www.w3.org/2000/svg">
<path d="M10.5982 2.00038C11.0214 1.58534 11.0214 0.911316 10.5982 0.496277C10.175 0.0812378 9.48779 0.0812378 9.06462 0.496277L5.49977 3.99589L1.93154 0.499597C1.50837 0.084558 0.821126 0.084558 0.397949 0.499597C-0.0252279 0.914636 -0.0252279 1.58866 0.397949 2.0037L3.96618 5.49999L0.401335 8.9996C-0.0218424 9.41464 -0.0218424 10.0887 0.401335 10.5037C0.824512 10.9187 1.51175 10.9187 1.93493 10.5037L5.49977 7.00409L9.068 10.5004C9.49118 10.9154 10.1784 10.9154 10.6016 10.5004C11.0248 10.0853 11.0248 9.41132 10.6016 8.99628L7.03337 5.49999L10.5982 2.00038Z" fill="#8C8F96"/>
</svg>
