<svg width="42" height="38" viewBox="0 0 42 38" fill="none" xmlns="http://www.w3.org/2000/svg">
<path d="M0 5.875C0 2.9793 2.3543 0.625 5.25 0.625H36.75C39.6457 0.625 42 2.9793 42 5.875V32.125C42 35.0207 39.6457 37.375 36.75 37.375H5.25C2.3543 37.375 0 35.0207 0 32.125V5.875ZM26.5617 14.6113C26.1926 14.0699 25.5855 13.75 24.9375 13.75C24.2895 13.75 23.6742 14.0699 23.3133 14.6113L16.1766 25.0785L14.0027 22.3633C13.6254 21.8957 13.0594 21.625 12.4688 21.625C11.8781 21.625 11.3039 21.8957 10.9348 22.3633L5.68477 28.9258C5.20898 29.5164 5.11875 30.3285 5.44688 31.0094C5.775 31.6902 6.46406 32.125 7.21875 32.125H15.0938H17.7188H34.7812C35.5113 32.125 36.184 31.723 36.5203 31.075C36.8566 30.427 36.8156 29.6477 36.4055 29.0488L26.5617 14.6113ZM9.1875 13.75C10.2318 13.75 11.2333 13.3352 11.9717 12.5967C12.7102 11.8583 13.125 10.8568 13.125 9.8125C13.125 8.76821 12.7102 7.76669 11.9717 7.02827C11.2333 6.28984 10.2318 5.875 9.1875 5.875C8.14321 5.875 7.14169 6.28984 6.40327 7.02827C5.66484 7.76669 5.25 8.76821 5.25 9.8125C5.25 10.8568 5.66484 11.8583 6.40327 12.5967C7.14169 13.3352 8.14321 13.75 9.1875 13.75Z" fill="#DFE1E8"/>
</svg>
