<svg width="20" height="16" viewBox="0 0 20 16" fill="none" xmlns="http://www.w3.org/2000/svg">
<path d="M10.0001 0.125C7.19455 0.125 4.94803 1.41875 3.31261 2.95859C1.68761 4.48438 0.600803 6.3125 0.0869141 7.56758C-0.0276693 7.84531 -0.0276693 8.15469 0.0869141 8.43242C0.600803 9.6875 1.68761 11.5156 3.31261 13.0414C4.94803 14.5813 7.19455 15.875 10.0001 15.875C12.8057 15.875 15.0522 14.5813 16.6876 13.0414C18.3126 11.5121 19.3994 9.6875 19.9168 8.43242C20.0314 8.15469 20.0314 7.84531 19.9168 7.56758C19.3994 6.3125 18.3126 4.48438 16.6876 2.95859C15.0522 1.41875 12.8057 0.125 10.0001 0.125ZM5.00011 8C5.00011 6.65734 5.52689 5.36967 6.46457 4.42027C7.40226 3.47087 8.67403 2.9375 10.0001 2.9375C11.3262 2.9375 12.598 3.47087 13.5356 4.42027C14.4733 5.36967 15.0001 6.65734 15.0001 8C15.0001 9.34266 14.4733 10.6303 13.5356 11.5797C12.598 12.5291 11.3262 13.0625 10.0001 13.0625C8.67403 13.0625 7.40226 12.5291 6.46457 11.5797C5.52689 10.6303 5.00011 9.34266 5.00011 8ZM10.0001 5.75C10.0001 6.99102 9.00358 8 7.77789 8C7.53136 8 7.29525 7.95781 7.07303 7.88398C6.88205 7.8207 6.65983 7.94023 6.66678 8.14414C6.67719 8.38672 6.71191 8.6293 6.77789 8.87187C7.25358 10.6719 9.08344 11.7406 10.8612 11.259C12.639 10.7773 13.6946 8.92461 13.2189 7.12461C12.8334 5.66563 11.5591 4.68477 10.1425 4.625C9.94108 4.61797 9.82303 4.83945 9.88553 5.03633C9.95844 5.26133 10.0001 5.50039 10.0001 5.75Z" fill="#DFE1E8"/>
</svg>
