<svg width="16" height="13" viewBox="0 0 16 13" fill="none" xmlns="http://www.w3.org/2000/svg">
<path d="M2.46389 5.61953L0 9.77578V2.125C0 1.15977 0.797222 0.375 1.77778 0.375H5.04167C5.51389 0.375 5.96667 0.558203 6.3 0.886328L7.03611 1.61094C7.36944 1.93906 7.82222 2.12227 8.29445 2.12227H11.5556C12.5361 2.12227 13.3333 2.90703 13.3333 3.87227V4.74727H4C3.36667 4.74727 2.78333 5.07812 2.46389 5.6168V5.61953ZM3.23056 6.05977C3.39167 5.78906 3.68333 5.625 4 5.625H15.1111C15.4306 5.625 15.7222 5.7918 15.8806 6.06523C16.0389 6.33867 16.0389 6.67227 15.8778 6.94297L12.7667 12.193C12.6083 12.4609 12.3167 12.625 12 12.625H0.888889C0.569444 12.625 0.277778 12.4582 0.119444 12.1848C-0.0388889 11.9113 -0.0388889 11.5777 0.122222 11.307L3.23333 6.05703L3.23056 6.05977Z" fill="#8C8F96"/>
</svg>
