<svg width="12" height="13" viewBox="0 0 12 13" fill="none" xmlns="http://www.w3.org/2000/svg">
<path d="M11 2.5C11.5523 2.5 12 2.05228 12 1.5C12 0.947715 11.5523 0.5 11 0.5H1.023C0.470716 0.5 0.0229998 0.947715 0.0229998 1.5C0.0229998 2.05228 0.470715 2.5 1.023 2.5H10.8H11ZM0 6.5C0 5.94772 0.447715 5.5 1 5.5H11C11.5523 5.5 12 5.94772 12 6.5C12 7.05228 11.5523 7.5 11 7.5H1C0.447715 7.5 0 7.05228 0 6.5ZM0 11.5C0 10.9477 0.447715 10.5 1 10.5H11C11.5523 10.5 12 10.9477 12 11.5C12 12.0523 11.5523 12.5 11 12.5H1C0.447715 12.5 0 12.0523 0 11.5Z" fill="#DFE1E8"/>
</svg>
