<svg width="8" height="13" viewBox="0 0 8 13" fill="none" xmlns="http://www.w3.org/2000/svg">
<path d="M3.43493 0.63208C3.74743 0.290283 4.25493 0.290283 4.56743 0.63208L7.76743 4.13208C7.99743 4.38364 8.06493 4.75825 7.93993 5.08638C7.81493 5.4145 7.52493 5.62778 7.19993 5.62778H0.799927C0.477427 5.62778 0.184927 5.4145 0.0599269 5.08638C-0.0650731 4.75825 0.0049269 4.38364 0.232427 4.13208L3.43243 0.63208H3.43493ZM3.43493 12.3708L0.234927 8.87075C0.0049269 8.61919 -0.0625731 8.24458 0.0624269 7.91645C0.187427 7.58833 0.477427 7.37505 0.802427 7.37505H7.19993C7.52243 7.37505 7.81493 7.58833 7.93993 7.91645C8.06493 8.24458 7.99493 8.61919 7.76743 8.87075L4.56743 12.3708C4.25493 12.7125 3.74743 12.7125 3.43493 12.3708Z" fill="#8C8F96"/>
</svg>
