<svg width="17" height="13" viewBox="0 0 17 13" fill="none" xmlns="http://www.w3.org/2000/svg">
<path d="M15.4011 6.81989C16.9019 5.27497 16.9019 2.77302 15.4011 1.2281C14.073 -0.139092 11.9798 -0.316826 10.4525 0.807002L10.41 0.83708C10.0275 1.11872 9.93984 1.6656 10.2134 2.05661C10.487 2.44763 11.0183 2.5406 11.3981 2.25896L11.4406 2.22888C12.2933 1.60271 13.4594 1.70114 14.1978 2.46403C15.0345 3.32536 15.0345 4.71989 14.1978 5.58122L11.2175 8.65466C10.3808 9.51599 9.02609 9.51599 8.18937 8.65466C7.44828 7.89177 7.35266 6.69138 7.96094 5.81638L7.99016 5.77263C8.26375 5.37888 8.17344 4.832 7.79359 4.5531C7.41375 4.27419 6.87984 4.36442 6.60891 4.75544L6.57969 4.79919C5.48531 6.36872 5.65797 8.52341 6.98609 9.8906C8.48688 11.4355 10.9173 11.4355 12.4181 9.8906L15.4011 6.81989ZM1.59922 6.18005C0.0984375 7.72497 0.0984375 10.2269 1.59922 11.7718C2.92734 13.139 5.02047 13.3168 6.54781 12.1929L6.59031 12.1629C6.97281 11.8812 7.06047 11.3343 6.78688 10.9433C6.51328 10.5523 5.98203 10.4593 5.60219 10.741L5.55969 10.7711C4.70703 11.3972 3.54094 11.2988 2.8025 10.5359C1.96578 9.67185 1.96578 8.27731 2.8025 7.41599L5.78281 4.34528C6.61953 3.48396 7.97422 3.48396 8.81094 4.34528C9.55203 5.10817 9.64766 6.30856 9.03937 7.1863L9.01016 7.23005C8.73656 7.6238 8.82687 8.17067 9.20672 8.44958C9.58656 8.72849 10.1205 8.63825 10.3914 8.24724L10.4206 8.20349C11.515 6.63122 11.3423 4.47653 10.0142 3.10935C8.51344 1.56442 6.08297 1.56442 4.58219 3.10935L1.59922 6.18005Z" fill="#8C8F96"/>
</svg>
